<mxfile host="app.diagrams.net" modified="2022-04-19T16:17:06.475Z" agent="5.0 (Windows NT 10.0; Win64; x64) AppleWebKit/537.36 (KHTML, like Gecko) Chrome/100.0.4896.88 Safari/537.36" etag="XVLhv1OP_Z6HzyJG4l34" version="16.5.6" type="github">
  <diagram id="cvPari_scO-0o2VpbSEQ" name="Page-1">
    <mxGraphModel dx="1718" dy="935" grid="1" gridSize="10" guides="1" tooltips="1" connect="1" arrows="1" fold="1" page="1" pageScale="1" pageWidth="1169" pageHeight="827" math="0" shadow="0">
      <root>
        <mxCell id="0" />
        <mxCell id="1" parent="0" />
        <mxCell id="Kf_rUcnBpeBRhKQZt0No-1" value="REMOTE&lt;br&gt;&amp;lt;ssh server EC2&amp;gt;&lt;br&gt;&lt;code&gt;ssh.beyondwork.co.kr&lt;br&gt;&lt;/code&gt;&lt;br&gt;&lt;br&gt;&lt;br&gt;&lt;br&gt;&lt;br&gt;" style="whiteSpace=wrap;html=1;aspect=fixed;fillColor=#76608a;strokeColor=#432D57;fontColor=#ffffff;" vertex="1" parent="1">
          <mxGeometry x="470" y="300" width="200" height="200" as="geometry" />
        </mxCell>
        <mxCell id="Kf_rUcnBpeBRhKQZt0No-2" value="linuxserver.io&lt;br&gt;&amp;lt;container&amp;gt;&lt;br&gt;&lt;code&gt;&lt;font style=&quot;font-size: 8px&quot;&gt;172.17.0.1&lt;/font&gt;&lt;/code&gt;" style="rounded=0;whiteSpace=wrap;html=1;fillColor=#1ba1e2;strokeColor=#006EAF;fontColor=#ffffff;" vertex="1" parent="1">
          <mxGeometry x="510" y="430" width="120" height="60" as="geometry" />
        </mxCell>
        <mxCell id="Kf_rUcnBpeBRhKQZt0No-6" value="TARGET DEVICE NETWORK&#xa;10.1.0.101" style="swimlane;fontSize=8;" vertex="1" parent="1">
          <mxGeometry x="80" y="130" width="270" height="180" as="geometry" />
        </mxCell>
        <mxCell id="Kf_rUcnBpeBRhKQZt0No-3" value="&lt;span style=&quot;color: rgb(255 , 255 , 255) ; font-size: 12px&quot;&gt;TARGET_001&lt;br&gt;&amp;lt;ssh target device&amp;gt;&lt;br&gt;192.168.0.22&lt;br&gt;&lt;br&gt;&lt;br&gt;&lt;br&gt;&lt;br&gt;&lt;br&gt;&lt;/span&gt;" style="whiteSpace=wrap;html=1;fontSize=8;fillColor=#fa6800;fontColor=#000000;strokeColor=#C73500;" vertex="1" parent="Kf_rUcnBpeBRhKQZt0No-6">
          <mxGeometry x="10" y="30" width="180" height="140" as="geometry" />
        </mxCell>
        <mxCell id="Kf_rUcnBpeBRhKQZt0No-7" value="LOCAL_001&lt;br&gt;autossh_server&lt;br&gt;&amp;lt;container&amp;gt;&lt;br&gt;&lt;font face=&quot;monospace&quot;&gt;&lt;span style=&quot;font-size: 8px&quot;&gt;172.17.0.1&lt;/span&gt;&lt;/font&gt;" style="rounded=0;whiteSpace=wrap;html=1;fillColor=#1ba1e2;strokeColor=#006EAF;fontColor=#ffffff;" vertex="1" parent="Kf_rUcnBpeBRhKQZt0No-6">
          <mxGeometry x="20" y="100" width="120" height="60" as="geometry" />
        </mxCell>
        <mxCell id="Kf_rUcnBpeBRhKQZt0No-12" value="&lt;b&gt;&lt;font style=&quot;font-size: 13px&quot;&gt;:40041&lt;br&gt;&lt;/font&gt;&lt;/b&gt;" style="whiteSpace=wrap;html=1;fontSize=8;fillColor=#f0a30a;fontColor=#000000;strokeColor=#BD7000;" vertex="1" parent="Kf_rUcnBpeBRhKQZt0No-6">
          <mxGeometry x="140" y="140" width="45" height="20" as="geometry" />
        </mxCell>
        <mxCell id="Kf_rUcnBpeBRhKQZt0No-14" value="&lt;b&gt;&lt;font style=&quot;font-size: 13px&quot;&gt;:22&lt;br&gt;&lt;/font&gt;&lt;/b&gt;" style="whiteSpace=wrap;html=1;fontSize=8;fillColor=#f0a30a;fontColor=#000000;strokeColor=#BD7000;" vertex="1" parent="Kf_rUcnBpeBRhKQZt0No-6">
          <mxGeometry x="190" y="30" width="45" height="20" as="geometry" />
        </mxCell>
        <mxCell id="Kf_rUcnBpeBRhKQZt0No-43" style="edgeStyle=orthogonalEdgeStyle;rounded=0;sketch=0;jumpStyle=none;jumpSize=10;orthogonalLoop=1;jettySize=auto;html=1;exitX=1;exitY=0.25;exitDx=0;exitDy=0;fontFamily=Verdana;fontSize=10;strokeColor=#050505;strokeWidth=3;" edge="1" parent="Kf_rUcnBpeBRhKQZt0No-6" source="Kf_rUcnBpeBRhKQZt0No-7" target="Kf_rUcnBpeBRhKQZt0No-14">
          <mxGeometry relative="1" as="geometry">
            <mxPoint x="280" y="40" as="targetPoint" />
            <Array as="points">
              <mxPoint x="300" y="115" />
              <mxPoint x="300" y="40" />
            </Array>
          </mxGeometry>
        </mxCell>
        <mxCell id="Kf_rUcnBpeBRhKQZt0No-10" value="&lt;b&gt;&lt;font style=&quot;font-size: 13px&quot;&gt;:2222&lt;br&gt;&lt;/font&gt;&lt;/b&gt;" style="whiteSpace=wrap;html=1;fontSize=8;fillColor=#f0a30a;fontColor=#000000;strokeColor=#BD7000;" vertex="1" parent="1">
          <mxGeometry x="630" y="450" width="45" height="20" as="geometry" />
        </mxCell>
        <mxCell id="Kf_rUcnBpeBRhKQZt0No-15" value="&lt;b&gt;&lt;font style=&quot;font-size: 13px&quot;&gt;:22&lt;br&gt;&lt;/font&gt;&lt;/b&gt;" style="whiteSpace=wrap;html=1;fontSize=8;fillColor=#f0a30a;fontColor=#000000;strokeColor=#BD7000;" vertex="1" parent="1">
          <mxGeometry x="670" y="300" width="45" height="20" as="geometry" />
        </mxCell>
        <mxCell id="Kf_rUcnBpeBRhKQZt0No-26" style="edgeStyle=orthogonalEdgeStyle;rounded=0;orthogonalLoop=1;jettySize=auto;html=1;entryX=1;entryY=0.5;entryDx=0;entryDy=0;fontSize=13;strokeWidth=3;strokeColor=#050505;jumpStyle=none;sketch=0;jumpSize=10;" edge="1" parent="1" source="Kf_rUcnBpeBRhKQZt0No-16" target="Kf_rUcnBpeBRhKQZt0No-10">
          <mxGeometry relative="1" as="geometry" />
        </mxCell>
        <mxCell id="Kf_rUcnBpeBRhKQZt0No-45" value="ssh linunxserver.io@ssh.beyw.co.kr:2222" style="edgeLabel;html=1;align=center;verticalAlign=middle;resizable=0;points=[];fontSize=10;fontFamily=Verdana;" vertex="1" connectable="0" parent="Kf_rUcnBpeBRhKQZt0No-26">
          <mxGeometry x="-0.1192" y="-2" relative="1" as="geometry">
            <mxPoint as="offset" />
          </mxGeometry>
        </mxCell>
        <mxCell id="Kf_rUcnBpeBRhKQZt0No-39" style="edgeStyle=orthogonalEdgeStyle;rounded=0;orthogonalLoop=1;jettySize=auto;html=1;exitX=0.5;exitY=0;exitDx=0;exitDy=0;entryX=0.5;entryY=0;entryDx=0;entryDy=0;fontSize=13;" edge="1" parent="1" source="Kf_rUcnBpeBRhKQZt0No-16" target="Kf_rUcnBpeBRhKQZt0No-15">
          <mxGeometry relative="1" as="geometry">
            <Array as="points">
              <mxPoint x="990" y="200" />
              <mxPoint x="693" y="200" />
            </Array>
          </mxGeometry>
        </mxCell>
        <mxCell id="Kf_rUcnBpeBRhKQZt0No-40" value="&lt;font face=&quot;Verdana&quot; style=&quot;font-size: 10px&quot;&gt;ssh ec2-user@ssh.beyondwork.co.kr&lt;/font&gt;" style="edgeLabel;html=1;align=center;verticalAlign=middle;resizable=0;points=[];fontSize=13;" vertex="1" connectable="0" parent="Kf_rUcnBpeBRhKQZt0No-39">
          <mxGeometry x="0.0522" y="-2" relative="1" as="geometry">
            <mxPoint as="offset" />
          </mxGeometry>
        </mxCell>
        <mxCell id="Kf_rUcnBpeBRhKQZt0No-16" value="SOURCE&lt;br&gt;&amp;lt;User&#39;s device&amp;gt;&lt;br&gt;203.0.113.20" style="whiteSpace=wrap;html=1;aspect=fixed;fontSize=13;fillColor=#6d8764;fontColor=#ffffff;strokeColor=#3A5431;" vertex="1" parent="1">
          <mxGeometry x="890" y="300" width="200" height="200" as="geometry" />
        </mxCell>
        <mxCell id="Kf_rUcnBpeBRhKQZt0No-42" style="edgeStyle=orthogonalEdgeStyle;rounded=0;sketch=0;jumpStyle=none;jumpSize=10;orthogonalLoop=1;jettySize=auto;html=1;fontFamily=Verdana;fontSize=10;strokeColor=#050505;strokeWidth=3;entryX=1;entryY=0.5;entryDx=0;entryDy=0;shape=link;" edge="1" parent="1" source="Kf_rUcnBpeBRhKQZt0No-2" target="Kf_rUcnBpeBRhKQZt0No-12">
          <mxGeometry relative="1" as="geometry">
            <mxPoint x="410" y="460" as="targetPoint" />
            <mxPoint x="450" y="470" as="sourcePoint" />
            <Array as="points">
              <mxPoint x="400" y="480" />
              <mxPoint x="400" y="280" />
            </Array>
          </mxGeometry>
        </mxCell>
        <mxCell id="Kf_rUcnBpeBRhKQZt0No-46" value="ssh&lt;br&gt;target001&lt;br&gt;@localhost&lt;br&gt;40041" style="edgeLabel;html=1;align=center;verticalAlign=middle;resizable=0;points=[];fontSize=10;fontFamily=Verdana;" vertex="1" connectable="0" parent="Kf_rUcnBpeBRhKQZt0No-42">
          <mxGeometry x="0.0532" y="2" relative="1" as="geometry">
            <mxPoint as="offset" />
          </mxGeometry>
        </mxCell>
        <mxCell id="Kf_rUcnBpeBRhKQZt0No-17" value="&lt;b&gt;&lt;font style=&quot;font-size: 13px&quot;&gt;:2222&lt;br&gt;&lt;/font&gt;&lt;/b&gt;" style="whiteSpace=wrap;html=1;fontSize=8;fillColor=#f0a30a;fontColor=#000000;strokeColor=#BD7000;" vertex="1" parent="1">
          <mxGeometry x="465" y="450" width="45" height="20" as="geometry" />
        </mxCell>
        <mxCell id="Kf_rUcnBpeBRhKQZt0No-18" value="&lt;p style=&quot;line-height: 0.7 ; font-size: 8px&quot;&gt;&lt;b style=&quot;font-family: monospace&quot;&gt;host.docker.internal&lt;br&gt;&lt;/b&gt;&lt;span style=&quot;font-family: monospace&quot;&gt;&lt;b&gt;host.containers.internal&lt;/b&gt;&lt;/span&gt;&lt;/p&gt;" style="shape=parallelogram;perimeter=parallelogramPerimeter;whiteSpace=wrap;html=1;fixedSize=1;fontSize=13;fillColor=#647687;fontColor=#ffffff;strokeColor=#314354;" vertex="1" parent="1">
          <mxGeometry x="300" y="199" width="130" height="20" as="geometry" />
        </mxCell>
        <mxCell id="Kf_rUcnBpeBRhKQZt0No-27" value="TARGET DEVICE NETWORK&#xa;15.1.0.103" style="swimlane;fontSize=8;" vertex="1" parent="1">
          <mxGeometry x="80" y="330" width="270" height="180" as="geometry" />
        </mxCell>
        <mxCell id="Kf_rUcnBpeBRhKQZt0No-28" value="&lt;span style=&quot;color: rgb(255 , 255 , 255) ; font-size: 12px&quot;&gt;TARGET_002&lt;br&gt;&amp;lt;ssh target device&amp;gt;&lt;br&gt;192.168.12.24&lt;br&gt;&lt;br&gt;&lt;br&gt;&lt;br&gt;&lt;br&gt;&lt;br&gt;&lt;/span&gt;" style="whiteSpace=wrap;html=1;fontSize=8;fillColor=#fa6800;fontColor=#000000;strokeColor=#C73500;" vertex="1" parent="Kf_rUcnBpeBRhKQZt0No-27">
          <mxGeometry x="10" y="30" width="180" height="140" as="geometry" />
        </mxCell>
        <mxCell id="Kf_rUcnBpeBRhKQZt0No-29" value="LOCAL_002&lt;br&gt;autossh_server&lt;br&gt;&amp;lt;container&amp;gt;&lt;br&gt;&lt;font face=&quot;monospace&quot;&gt;&lt;span style=&quot;font-size: 8px&quot;&gt;172.17.0.1&lt;/span&gt;&lt;/font&gt;" style="rounded=0;whiteSpace=wrap;html=1;fillColor=#1ba1e2;strokeColor=#006EAF;fontColor=#ffffff;" vertex="1" parent="Kf_rUcnBpeBRhKQZt0No-27">
          <mxGeometry x="20" y="100" width="120" height="60" as="geometry" />
        </mxCell>
        <mxCell id="Kf_rUcnBpeBRhKQZt0No-30" value="&lt;b&gt;&lt;font style=&quot;font-size: 13px&quot;&gt;:40042&lt;br&gt;&lt;/font&gt;&lt;/b&gt;" style="whiteSpace=wrap;html=1;fontSize=8;fillColor=#f0a30a;fontColor=#000000;strokeColor=#BD7000;" vertex="1" parent="Kf_rUcnBpeBRhKQZt0No-27">
          <mxGeometry x="140" y="140" width="45" height="20" as="geometry" />
        </mxCell>
        <mxCell id="Kf_rUcnBpeBRhKQZt0No-31" value="&lt;b&gt;&lt;font style=&quot;font-size: 13px&quot;&gt;:22&lt;br&gt;&lt;/font&gt;&lt;/b&gt;" style="whiteSpace=wrap;html=1;fontSize=8;fillColor=#f0a30a;fontColor=#000000;strokeColor=#BD7000;" vertex="1" parent="Kf_rUcnBpeBRhKQZt0No-27">
          <mxGeometry x="190" y="30" width="45" height="20" as="geometry" />
        </mxCell>
        <mxCell id="Kf_rUcnBpeBRhKQZt0No-32" value="TARGET DEVICE NETWORK&#xa;217.1.13.202" style="swimlane;fontSize=8;" vertex="1" parent="1">
          <mxGeometry x="80" y="530" width="270" height="180" as="geometry" />
        </mxCell>
        <mxCell id="Kf_rUcnBpeBRhKQZt0No-33" value="&lt;span style=&quot;color: rgb(255 , 255 , 255) ; font-size: 12px&quot;&gt;TARGET_003&lt;br&gt;&amp;lt;ssh target device&amp;gt;&lt;br&gt;192.168.1.1&lt;br&gt;&lt;br&gt;&lt;br&gt;&lt;br&gt;&lt;br&gt;&lt;br&gt;&lt;/span&gt;" style="whiteSpace=wrap;html=1;fontSize=8;fillColor=#fa6800;fontColor=#000000;strokeColor=#C73500;" vertex="1" parent="Kf_rUcnBpeBRhKQZt0No-32">
          <mxGeometry x="10" y="30" width="180" height="140" as="geometry" />
        </mxCell>
        <mxCell id="Kf_rUcnBpeBRhKQZt0No-34" value="LOCAL_003&lt;br&gt;autossh_server&lt;br&gt;&amp;lt;container&amp;gt;&lt;br&gt;&lt;font face=&quot;monospace&quot;&gt;&lt;span style=&quot;font-size: 8px&quot;&gt;172.17.0.1&lt;/span&gt;&lt;/font&gt;" style="rounded=0;whiteSpace=wrap;html=1;fillColor=#1ba1e2;strokeColor=#006EAF;fontColor=#ffffff;" vertex="1" parent="Kf_rUcnBpeBRhKQZt0No-32">
          <mxGeometry x="20" y="100" width="120" height="60" as="geometry" />
        </mxCell>
        <mxCell id="Kf_rUcnBpeBRhKQZt0No-35" value="&lt;b&gt;&lt;font style=&quot;font-size: 13px&quot;&gt;:40043&lt;br&gt;&lt;/font&gt;&lt;/b&gt;" style="whiteSpace=wrap;html=1;fontSize=8;fillColor=#f0a30a;fontColor=#000000;strokeColor=#BD7000;" vertex="1" parent="Kf_rUcnBpeBRhKQZt0No-32">
          <mxGeometry x="140" y="140" width="45" height="20" as="geometry" />
        </mxCell>
        <mxCell id="Kf_rUcnBpeBRhKQZt0No-36" value="&lt;b&gt;&lt;font style=&quot;font-size: 13px&quot;&gt;:22&lt;br&gt;&lt;/font&gt;&lt;/b&gt;" style="whiteSpace=wrap;html=1;fontSize=8;fillColor=#f0a30a;fontColor=#000000;strokeColor=#BD7000;" vertex="1" parent="Kf_rUcnBpeBRhKQZt0No-32">
          <mxGeometry x="190" y="30" width="45" height="20" as="geometry" />
        </mxCell>
        <mxCell id="Kf_rUcnBpeBRhKQZt0No-37" style="edgeStyle=orthogonalEdgeStyle;rounded=0;orthogonalLoop=1;jettySize=auto;html=1;exitX=1;exitY=0.5;exitDx=0;exitDy=0;entryX=0;entryY=0.5;entryDx=0;entryDy=0;fontSize=13;dashed=1;" edge="1" parent="1" source="Kf_rUcnBpeBRhKQZt0No-7" target="Kf_rUcnBpeBRhKQZt0No-17">
          <mxGeometry relative="1" as="geometry">
            <Array as="points">
              <mxPoint x="450" y="260" />
              <mxPoint x="450" y="460" />
            </Array>
          </mxGeometry>
        </mxCell>
        <mxCell id="Kf_rUcnBpeBRhKQZt0No-41" value="" style="ellipse;shape=umlControl;whiteSpace=wrap;html=1;fontFamily=Verdana;fontSize=10;fillColor=none;" vertex="1" parent="1">
          <mxGeometry x="420" y="220" width="70" height="80" as="geometry" />
        </mxCell>
        <mxCell id="Kf_rUcnBpeBRhKQZt0No-44" value="auto ssh" style="text;html=1;align=center;verticalAlign=middle;resizable=0;points=[];autosize=1;strokeColor=none;fillColor=none;fontSize=10;fontFamily=Verdana;" vertex="1" parent="1">
          <mxGeometry x="466" y="219" width="60" height="20" as="geometry" />
        </mxCell>
      </root>
    </mxGraphModel>
  </diagram>
</mxfile>
